<svg width="42" height="38" viewBox="0 0 42 38" fill="none" xmlns="http://www.w3.org/2000/svg">
<path d="M22.3926 6.63208H19.5935V7.95404H22.3926V6.63208Z" fill="url(#paint0_linear_0_1)"/>
<path d="M24.4918 9.276H17.4941V10.598H24.4918V9.276Z" fill="url(#paint1_linear_0_1)"/>
<path d="M9.09705 18.5297H7.69751V19.8516H9.09705V18.5297Z" fill="url(#paint2_linear_0_1)"/>
<path d="M11.8961 18.5297H10.4966V19.8516H11.8961V18.5297Z" fill="url(#paint3_linear_0_1)"/>
<path d="M14.6952 18.5297H13.2957V19.8516H14.6952V18.5297Z" fill="url(#paint4_linear_0_1)"/>
<path d="M17.4943 18.5297H16.0947V19.8516H17.4943V18.5297Z" fill="url(#paint5_linear_0_1)"/>
<path d="M20.2933 18.5297H18.8938V19.8516H20.2933V18.5297Z" fill="url(#paint6_linear_0_1)"/>
<path d="M23.0924 18.5297H21.6929V19.8516H23.0924V18.5297Z" fill="url(#paint7_linear_0_1)"/>
<path d="M25.8915 18.5297H24.4919V19.8516H25.8915V18.5297Z" fill="url(#paint8_linear_0_1)"/>
<path d="M28.6906 18.5297H27.291V19.8516H28.6906V18.5297Z" fill="url(#paint9_linear_0_1)"/>
<path d="M31.4896 18.5297H30.0901V19.8516H31.4896V18.5297Z" fill="url(#paint10_linear_0_1)"/>
<path d="M34.2887 18.5297H32.8892V19.8516H34.2887V18.5297Z" fill="url(#paint11_linear_0_1)"/>
<path d="M15.3949 27.7834H13.9954V29.1054H15.3949V27.7834Z" fill="url(#paint12_linear_0_1)"/>
<path d="M22.3926 23.1566V31.0884C22.3926 31.485 22.6725 31.7494 23.0923 31.7494H32.8891C33.309 31.7494 33.5889 31.485 33.5889 31.0884V23.1566C33.5889 22.76 33.309 22.4956 32.8891 22.4956H23.0923C22.6725 22.4956 22.3926 22.7607 22.3926 23.1566ZM23.7921 27.7835H27.291V30.4274H23.7921V27.7835ZM28.6905 30.4274V27.7835H32.1893V30.4274H28.6905ZM32.1893 26.4615H28.6905V23.8176H32.1893V26.4615ZM27.291 23.8176V26.4615H23.7921V23.8176H27.291Z" fill="url(#paint13_linear_0_1)"/>
<path d="M39.1871 35.7153V33.7323C39.1871 33.3357 38.9072 33.0713 38.4873 33.0713H37.0878V17.2077H39.1871C39.6069 17.2077 39.8868 16.9433 39.8868 16.5467V14.1011C39.8868 13.9028 39.8169 13.7045 39.6069 13.5723L34.2887 9.87082V2.00512C34.2887 1.60853 34.0088 1.34413 33.5889 1.34413H27.9908C27.5709 1.34413 27.291 1.60853 27.291 2.00512V4.91344L21.4129 0.815347C21.133 0.617052 20.8531 0.617052 20.5732 0.815347L2.86905 13.2418H2.79908V13.3079L2.37922 13.5723C2.16929 13.7045 2.09931 13.9028 2.09931 14.1011V16.5467C2.09931 16.9433 2.37921 17.2077 2.79908 17.2077H4.89838V33.0713H3.49885C3.07898 33.0713 2.79908 33.3357 2.79908 33.7323V35.7153H0V37.0372H3.49885H38.4873H41.9861V35.7153H39.1871ZM32.8891 2.6661V3.32708H28.6905V2.6661H32.8891ZM28.6905 4.64905H32.8891V8.87934L28.6905 5.90492V4.64905ZM3.49885 14.5638H31.4896V13.2418H5.17829L20.9931 2.13797L38.4873 14.4323V15.8864H36.388H5.59815H3.49885V14.5638ZM6.29792 17.2077H35.6882V33.0713H18.194V23.8176H19.5935V22.4956H17.4942H9.79677H7.69746V23.8176H9.097V33.0713H6.29792V17.2077ZM10.4965 23.8176H16.7945V33.0713H10.4965V23.8176ZM4.19861 35.7153V34.3933H5.59815H9.79677H17.4942H36.388H37.7875V35.7153H4.19861Z" fill="url(#paint14_linear_0_1)"/>
<defs>
<linearGradient id="paint0_linear_0_1" x1="20.1097" y1="6.77309" x2="21.8254" y2="6.8665" gradientUnits="userSpaceOnUse">
<stop stop-color="#DC3E88"/>
<stop offset="0.418735" stop-color="#B840AE"/>
<stop offset="1" stop-color="#843FE8"/>
</linearGradient>
<linearGradient id="paint1_linear_0_1" x1="18.7846" y1="9.41701" x2="23.0083" y2="9.99192" gradientUnits="userSpaceOnUse">
<stop stop-color="#DC3E88"/>
<stop offset="0.418735" stop-color="#B840AE"/>
<stop offset="1" stop-color="#843FE8"/>
</linearGradient>
<linearGradient id="paint2_linear_0_1" x1="7.95561" y1="18.6707" x2="8.81535" y2="18.6941" gradientUnits="userSpaceOnUse">
<stop stop-color="#DC3E88"/>
<stop offset="0.418735" stop-color="#B840AE"/>
<stop offset="1" stop-color="#843FE8"/>
</linearGradient>
<linearGradient id="paint3_linear_0_1" x1="10.7547" y1="18.6707" x2="11.6144" y2="18.6941" gradientUnits="userSpaceOnUse">
<stop stop-color="#DC3E88"/>
<stop offset="0.418735" stop-color="#B840AE"/>
<stop offset="1" stop-color="#843FE8"/>
</linearGradient>
<linearGradient id="paint4_linear_0_1" x1="13.5538" y1="18.6707" x2="14.4135" y2="18.6941" gradientUnits="userSpaceOnUse">
<stop stop-color="#DC3E88"/>
<stop offset="0.418735" stop-color="#B840AE"/>
<stop offset="1" stop-color="#843FE8"/>
</linearGradient>
<linearGradient id="paint5_linear_0_1" x1="16.3528" y1="18.6707" x2="17.2126" y2="18.6941" gradientUnits="userSpaceOnUse">
<stop stop-color="#DC3E88"/>
<stop offset="0.418735" stop-color="#B840AE"/>
<stop offset="1" stop-color="#843FE8"/>
</linearGradient>
<linearGradient id="paint6_linear_0_1" x1="19.1519" y1="18.6707" x2="20.0116" y2="18.6941" gradientUnits="userSpaceOnUse">
<stop stop-color="#DC3E88"/>
<stop offset="0.418735" stop-color="#B840AE"/>
<stop offset="1" stop-color="#843FE8"/>
</linearGradient>
<linearGradient id="paint7_linear_0_1" x1="21.951" y1="18.6707" x2="22.8107" y2="18.6941" gradientUnits="userSpaceOnUse">
<stop stop-color="#DC3E88"/>
<stop offset="0.418735" stop-color="#B840AE"/>
<stop offset="1" stop-color="#843FE8"/>
</linearGradient>
<linearGradient id="paint8_linear_0_1" x1="24.75" y1="18.6707" x2="25.6098" y2="18.6941" gradientUnits="userSpaceOnUse">
<stop stop-color="#DC3E88"/>
<stop offset="0.418735" stop-color="#B840AE"/>
<stop offset="1" stop-color="#843FE8"/>
</linearGradient>
<linearGradient id="paint9_linear_0_1" x1="27.5491" y1="18.6707" x2="28.4089" y2="18.6941" gradientUnits="userSpaceOnUse">
<stop stop-color="#DC3E88"/>
<stop offset="0.418735" stop-color="#B840AE"/>
<stop offset="1" stop-color="#843FE8"/>
</linearGradient>
<linearGradient id="paint10_linear_0_1" x1="30.3482" y1="18.6707" x2="31.2079" y2="18.6941" gradientUnits="userSpaceOnUse">
<stop stop-color="#DC3E88"/>
<stop offset="0.418735" stop-color="#B840AE"/>
<stop offset="1" stop-color="#843FE8"/>
</linearGradient>
<linearGradient id="paint11_linear_0_1" x1="33.1473" y1="18.6707" x2="34.007" y2="18.6941" gradientUnits="userSpaceOnUse">
<stop stop-color="#DC3E88"/>
<stop offset="0.418735" stop-color="#B840AE"/>
<stop offset="1" stop-color="#843FE8"/>
</linearGradient>
<linearGradient id="paint12_linear_0_1" x1="14.2535" y1="27.9245" x2="15.1132" y2="27.9479" gradientUnits="userSpaceOnUse">
<stop stop-color="#DC3E88"/>
<stop offset="0.418735" stop-color="#B840AE"/>
<stop offset="1" stop-color="#843FE8"/>
</linearGradient>
<linearGradient id="paint13_linear_0_1" x1="24.4574" y1="23.4827" x2="31.3338" y2="23.6966" gradientUnits="userSpaceOnUse">
<stop stop-color="#DC3E88"/>
<stop offset="0.418735" stop-color="#B840AE"/>
<stop offset="1" stop-color="#843FE8"/>
</linearGradient>
<linearGradient id="paint14_linear_0_1" x1="7.74304" y1="4.54617" x2="33.5317" y2="5.31171" gradientUnits="userSpaceOnUse">
<stop stop-color="#DC3E88"/>
<stop offset="0.418735" stop-color="#B840AE"/>
<stop offset="1" stop-color="#843FE8"/>
</linearGradient>
</defs>
</svg>
