<svg width="42" height="40" viewBox="0 0 42 40" fill="none" xmlns="http://www.w3.org/2000/svg">
<path d="M22.3926 6.50769H19.5935V7.94984H22.3926V6.50769Z" fill="#FEF9F9"/>
<path d="M24.4918 9.39197H17.4941V10.8341H24.4918V9.39197Z" fill="#FEF9F9"/>
<path d="M9.09705 19.4869H7.69751V20.9291H9.09705V19.4869Z" fill="#FEF9F9"/>
<path d="M11.8961 19.4869H10.4966V20.9291H11.8961V19.4869Z" fill="#FEF9F9"/>
<path d="M14.6952 19.4869H13.2957V20.9291H14.6952V19.4869Z" fill="#FEF9F9"/>
<path d="M17.4943 19.4869H16.0947V20.9291H17.4943V19.4869Z" fill="#FEF9F9"/>
<path d="M20.2933 19.4869H18.8938V20.9291H20.2933V19.4869Z" fill="#FEF9F9"/>
<path d="M23.0924 19.4869H21.6929V20.9291H23.0924V19.4869Z" fill="#FEF9F9"/>
<path d="M25.8915 19.4869H24.4919V20.9291H25.8915V19.4869Z" fill="#FEF9F9"/>
<path d="M28.6906 19.4869H27.291V20.9291H28.6906V19.4869Z" fill="#FEF9F9"/>
<path d="M31.4896 19.4869H30.0901V20.9291H31.4896V19.4869Z" fill="#FEF9F9"/>
<path d="M34.2887 19.4869H32.8892V20.9291H34.2887V19.4869Z" fill="#FEF9F9"/>
<path d="M15.3949 29.5819H13.9954V31.0241H15.3949V29.5819Z" fill="#FEF9F9"/>
<path d="M22.3926 24.5344V33.1873C22.3926 33.6199 22.6725 33.9084 23.0923 33.9084H32.8891C33.309 33.9084 33.5889 33.6199 33.5889 33.1873V24.5344C33.5889 24.1018 33.309 23.8134 32.8891 23.8134H23.0923C22.6725 23.8134 22.3926 24.1025 22.3926 24.5344ZM23.7921 29.5819H27.291V32.4662H23.7921V29.5819ZM28.6905 32.4662V29.5819H32.1893V32.4662H28.6905ZM32.1893 28.1398H28.6905V25.2555H32.1893V28.1398ZM27.291 25.2555V28.1398H23.7921V25.2555H27.291Z" fill="#FEF9F9"/>
<path d="M39.1871 38.2349V36.0717C39.1871 35.639 38.9072 35.3506 38.4873 35.3506H37.0878V18.0448H39.1871C39.6069 18.0448 39.8868 17.7564 39.8868 17.3238V14.6558C39.8868 14.4395 39.8169 14.2232 39.6069 14.0789L34.2887 10.0409V1.46017C34.2887 1.02753 34.0088 0.739099 33.5889 0.739099H27.9908C27.5709 0.739099 27.291 1.02753 27.291 1.46017V4.63289L21.4129 0.162241C21.133 -0.0540804 20.8531 -0.0540804 20.5732 0.162241L2.86905 13.7184H2.79908V13.7905L2.37922 14.0789C2.16929 14.2232 2.09931 14.4395 2.09931 14.6558V17.3238C2.09931 17.7564 2.37921 18.0448 2.79908 18.0448H4.89838V35.3506H3.49885C3.07898 35.3506 2.79908 35.639 2.79908 36.0717V38.2349H0V39.677H3.49885H38.4873H41.9861V38.2349H39.1871ZM32.8891 2.18124V2.90232H28.6905V2.18124H32.8891ZM28.6905 4.34446H32.8891V8.95933L28.6905 5.7145V4.34446ZM3.49885 15.1605H31.4896V13.7184H5.17829L20.9931 1.60511L38.4873 15.0171V16.6034H36.388H5.59815H3.49885V15.1605ZM6.29792 18.0448H35.6882V35.3506H18.194V25.2556H19.5935V23.8134H17.4942H9.79677H7.69746V25.2556H9.097V35.3506H6.29792V18.0448ZM10.4965 25.2556H16.7945V35.3506H10.4965V25.2556ZM4.19861 38.2349V36.7927H5.59815H9.79677H17.4942H36.388H37.7875V38.2349H4.19861Z" fill="#F7F7F7"/>
</svg>
